<?xml version="1.0" encoding="utf-8"?>
<!-- Generator: Adobe Illustrator 23.0.6, SVG Export Plug-In . SVG Version: 6.00 Build 0)  -->
<svg version="1.1" id="Layer_1" xmlns="http://www.w3.org/2000/svg" xmlns:xlink="http://www.w3.org/1999/xlink" x="0px" y="0px"
	 viewBox="0 0 362.6 464.4" style="enable-background:new 0 0 362.6 464.4;" xml:space="preserve">
<g>
	<circle cx="181.4" cy="110.3" r="100.3"/>
	<g>
		<path d="M271.7,110.3c-0.3,37.4-23.9,72.4-59.5,84.9c-36.2,12.8-76.3,1.6-100.8-27.8C87.4,138.6,84.8,96,103.9,64
			c19.3-32.4,58.3-50,95.4-42.2C241.1,30.5,271.4,67.6,271.7,110.3c0.1,12.9,20.1,12.9,20,0C291.4,64,262.2,22.5,218.8,6.5
			C175.9-9.3,125.2,4.6,96.4,40c-29.3,36.1-33.7,87.9-9.1,127.8c24.2,39.3,70.8,59.3,116,50.6c51.1-9.9,88.1-56.5,88.4-108.1
			C291.8,97.4,271.8,97.4,271.7,110.3z"/>
	</g>
</g>
<g>
	<path d="M352.5,454H10.1V351.7c0-59.7,48.4-108.1,108.1-108.1h126.2c59.7,0,108.1,48.4,108.1,108.1V454z"/>
	<g>
		<path d="M352.5,444c-11.4,0-22.8,0-34.1,0c-27.2,0-54.3,0-81.5,0c-33,0-66,0-99.1,0c-28.4,0-56.9,0-85.3,0c-9.5,0-18.9,0-28.4,0
			c-4.4,0-9-0.4-13.4,0c-0.2,0-0.4,0-0.6,0c3.3,3.3,6.7,6.7,10,10c0-33.7-0.1-67.5,0-101.2c0-27.6,10.9-53.7,31.1-72.7
			c18.8-17.7,43.4-26.4,68.9-26.4c38.3,0,76.7,0,115,0c5.2,0,10.4-0.1,15.6,0.2c15.3,0.9,30.2,5.6,43.4,13.3
			c26.1,15.4,44.7,43.1,47.8,73.4c1.7,16.3,0.6,33.1,0.6,49.5c0,20,0,40.1,0,60.1c0,1.3,0,2.6,0,3.9c0,12.9,20,12.9,20,0
			c0-34,0.2-68,0-102c-0.1-32.8-13.7-64.7-37.9-87c-22.3-20.5-51.3-31.4-81.5-31.4c-38.9,0-77.8,0-116.7,0c-24.2,0-47.4,4-68.5,16.6
			c-29.3,17.5-50.6,47.8-56,81.6c-2.9,18.1-1.7,37-1.7,55.4c0,20.9,0,41.9,0,62.8c0,1.4,0,2.7,0,4.1c0,5.4,4.6,10,10,10
			c11.4,0,22.8,0,34.1,0c27.2,0,54.3,0,81.5,0c33,0,66,0,99.1,0c28.4,0,56.9,0,85.3,0c13.9,0,27.9,0.6,41.8,0c0.2,0,0.4,0,0.6,0
			C365.3,464,365.4,444,352.5,444z"/>
	</g>
</g>
</svg>
