<svg xmlns="http://www.w3.org/2000/svg" xmlns:xlink="http://www.w3.org/1999/xlink" version="1.1" x="0px" y="0px" viewBox="0 0 500 625" enable-background="new 0 0 500 500" xml:space="preserve"><g><circle cx="250" cy="128.5" r="100.3"/><g><path d="M340.3,128.5c-0.3,37.4-23.9,72.4-59.5,84.9c-36.2,12.8-76.3,1.6-100.8-27.8c-24-28.8-26.6-71.4-7.5-103.4    c19.3-32.4,58.3-50,95.4-42.2C309.7,48.7,340,85.8,340.3,128.5c0.1,12.9,20.1,12.9,20,0c-0.3-46.3-29.5-87.8-72.9-103.8    C244.5,8.9,193.8,22.8,165,58.2c-29.3,36.1-33.7,87.9-9.1,127.8c24.2,39.3,70.8,59.3,116,50.6c51.1-9.9,88.1-56.5,88.4-108.1    C360.4,115.6,340.4,115.6,340.3,128.5z"/></g></g><g><path d="M421.1,472.2H78.7V369.9c0-59.7,48.4-108.1,108.1-108.1H313c59.7,0,108.1,48.4,108.1,108.1V472.2z"/><g><path d="M421.1,462.2c-11.4,0-22.8,0-34.1,0c-27.2,0-54.3,0-81.5,0c-33,0-66,0-99.1,0c-28.4,0-56.9,0-85.3,0    c-9.5,0-18.9,0-28.4,0c-4.4,0-9-0.4-13.4,0c-0.2,0-0.4,0-0.6,0c3.3,3.3,6.7,6.7,10,10c0-33.7-0.1-67.5,0-101.2    c0-27.6,10.9-53.7,31.1-72.7c18.8-17.7,43.4-26.4,68.9-26.4c38.3,0,76.7,0,115,0c5.2,0,10.4-0.1,15.6,0.2    c15.3,0.9,30.2,5.6,43.4,13.3c26.1,15.4,44.7,43.1,47.8,73.4c1.7,16.3,0.6,33.1,0.6,49.5c0,20,0,40.1,0,60.1c0,1.3,0,2.6,0,3.9    c0,12.9,20,12.9,20,0c0-34,0.2-68,0-102c-0.1-32.8-13.7-64.7-37.9-87c-22.3-20.5-51.3-31.4-81.5-31.4c-38.9,0-77.8,0-116.7,0    c-24.2,0-47.4,4-68.5,16.6c-29.3,17.5-50.6,47.8-56,81.6c-2.9,18.1-1.7,37-1.7,55.4c0,20.9,0,41.9,0,62.8c0,1.4,0,2.7,0,4.1    c0,5.4,4.6,10,10,10c11.4,0,22.8,0,34.1,0c27.2,0,54.3,0,81.5,0c33,0,66,0,99.1,0c28.4,0,56.9,0,85.3,0c13.9,0,27.9,0.6,41.8,0    c0.2,0,0.4,0,0.6,0C433.9,482.2,434,462.2,421.1,462.2z"/></g></g><text x="0" y="515" fill="#000000" font-size="5px" font-weight="bold" font-family="'Helvetica Neue', Helvetica, Arial-Unicode, Arial, Sans-serif">Created by Neha Tyagi</text><text x="0" y="520" fill="#000000" font-size="5px" font-weight="bold" font-family="'Helvetica Neue', Helvetica, Arial-Unicode, Arial, Sans-serif">from the Noun Project</text></svg>