<?xml version="1.0" encoding="utf-8"?>
<!-- Generator: Adobe Illustrator 23.0.6, SVG Export Plug-In . SVG Version: 6.00 Build 0)  -->
<svg version="1.1" id="Layer_1" xmlns="http://www.w3.org/2000/svg" xmlns:xlink="http://www.w3.org/1999/xlink" x="0px" y="0px"
	 viewBox="0 0 362.6 464.4" style="enable-background:new 0 0 362.6 464.4;" xml:space="preserve">
<g>
	<circle cx="181.2" cy="139.1" r="67.2"/>
	<g>
		<path d="M241.7,139.1c-0.2,25.1-16,48.5-39.9,56.9c-24.3,8.6-51.1,1.1-67.6-18.6c-16.1-19.3-17.8-47.9-5-69.3
			c12.9-21.7,39.1-33.5,63.9-28.3C221.2,85.6,241.5,110.5,241.7,139.1c0.1,8.6,13.5,8.6,13.4,0c-0.2-31-19.8-58.8-48.9-69.6
			c-28.8-10.6-62.7-1.3-82,22.5c-19.6,24.2-22.6,58.9-6.1,85.7c16.2,26.3,47.5,39.7,77.7,33.9c34.2-6.6,59-37.9,59.2-72.5
			C255.2,130.5,241.8,130.5,241.7,139.1z"/>
	</g>
</g>
<g>
	<path d="M296.1,369.5H66.6v-68.6c0-40,32.4-72.5,72.5-72.5h84.6c40,0,72.5,32.4,72.5,72.5V369.5z"/>
	<g>
		<path d="M296.1,362.7c-7.6,0-15.3,0-22.9,0c-18.2,0-36.4,0-54.6,0c-22.1,0-44.2,0-66.4,0c-19,0-38.1,0-57.2,0c-6.4,0-12.7,0-19,0
			c-2.9,0-6-0.3-9,0c-0.1,0-0.3,0-0.4,0c2.2,2.2,4.5,4.5,6.7,6.7c0-22.6-0.1-45.2,0-67.8c0-18.5,7.3-36,20.8-48.7
			c12.6-11.9,29.1-17.7,46.2-17.7c25.7,0,51.4,0,77.1,0c3.5,0,7-0.1,10.5,0.1c10.3,0.6,20.2,3.8,29.1,8.9c17.5,10.3,30,28.9,32,49.2
			c1.1,10.9,0.4,22.2,0.4,33.2c0,13.4,0,26.9,0,40.3c0,0.9,0,1.7,0,2.6c0,8.6,13.4,8.6,13.4,0c0-22.8,0.1-45.6,0-68.4
			c-0.1-22-9.2-43.4-25.4-58.3c-14.9-13.7-34.4-21-54.6-21c-26.1,0-52.1,0-78.2,0c-16.2,0-31.8,2.7-45.9,11.1
			c-19.6,11.7-33.9,32-37.5,54.7c-1.9,12.1-1.1,24.8-1.1,37.1c0,14,0,28.1,0,42.1c0,0.9,0,1.8,0,2.7c0,3.6,3.1,6.7,6.7,6.7
			c7.6,0,15.3,0,22.9,0c18.2,0,36.4,0,54.6,0c22.1,0,44.2,0,66.4,0c19,0,38.1,0,57.2,0c9.3,0,18.7,0.4,28,0c0.1,0,0.3,0,0.4,0
			C304.6,376.2,304.7,362.7,296.1,362.7z"/>
	</g>
</g>
</svg>
