<?xml version="1.0" encoding="utf-8"?>
<!-- Generator: Adobe Illustrator 23.0.6, SVG Export Plug-In . SVG Version: 6.00 Build 0)  -->
<svg version="1.1" id="Layer_1" xmlns="http://www.w3.org/2000/svg" xmlns:xlink="http://www.w3.org/1999/xlink" x="0px" y="0px"
	 viewBox="0 0 90 72.4" style="enable-background:new 0 0 90 72.4;" xml:space="preserve">
<style type="text/css">
	.st0{fill:none;}
	.st1{fill:#262626;}
</style>
<circle class="st0" cx="14" cy="18.9" r="5.1"/>
<path class="st0" d="M45,18.4c-11.6,0-21,9.4-21,21c0,11.6,9.4,21,21,21c11.6,0,21-9.4,21-21C66,27.8,56.6,18.4,45,18.4z M45,52.2
	c-7.1,0-12.8-5.8-12.8-12.8c0-7.1,5.8-12.8,12.8-12.8c7.1,0,12.8,5.8,12.8,12.8C57.8,46.5,52.1,52.2,45,52.2z"/>
<path class="st1" d="M81,6.4H60.9l-3.2-4.8c-0.6-0.9-1.9-1.6-3-1.6H35.3c-1.1,0-2.4,0.7-3,1.6l-3.2,4.8H9c-5,0-9,4-9,9v48
	c0,5,4,9,9,9h72c5,0,9-4,9-9v-48C90,10.4,86,6.4,81,6.4z M14,23.9c-2.8,0-5.1-2.3-5.1-5.1s2.3-5.1,5.1-5.1s5.1,2.3,5.1,5.1
	S16.8,23.9,14,23.9z M45,60.4c-11.6,0-21-9.4-21-21c0-11.6,9.4-21,21-21c11.6,0,21,9.4,21,21C66,51,56.6,60.4,45,60.4z"/>
<circle class="st1" cx="45" cy="39.4" r="12.8"/>
</svg>
