<?xml version="1.0" encoding="utf-8"?>
<!-- Generator: Adobe Illustrator 23.0.6, SVG Export Plug-In . SVG Version: 6.00 Build 0)  -->
<svg version="1.1" id="Layer_1" xmlns="http://www.w3.org/2000/svg" xmlns:xlink="http://www.w3.org/1999/xlink" x="0px" y="0px"
	 viewBox="0 0 79.6 72" style="enable-background:new 0 0 79.6 72;" xml:space="preserve">
<path d="M79.6,10c0-5.5-4.5-10-10-10H10C4.5,0,0,4.5,0,10v33.5c0,5.5,4.5,10,10,10h8.9V72l28.8-18.5h21.9c5.5,0,10-4.5,10-10V10z
	 M75.6,43.5c0,3.3-2.7,6-6,6h-23L22.9,64.6V49.5H10c-3.3,0-6-2.7-6-6V10c0-3.3,2.7-6,6-6h59.6c3.3,0,6,2.7,6,6V43.5z"/>
</svg>
