<?xml version="1.0" encoding="utf-8"?>
<!-- Generator: Adobe Illustrator 23.0.6, SVG Export Plug-In . SVG Version: 6.00 Build 0)  -->
<svg version="1.1" id="Layer_1" xmlns="http://www.w3.org/2000/svg" xmlns:xlink="http://www.w3.org/1999/xlink" x="0px" y="0px"
	 viewBox="0 0 42 42" style="enable-background:new 0 0 42 42;" xml:space="preserve">
<path d="M6.1,6.1C-2,14.3-2,27.7,6.1,35.8C10.2,39.9,15.6,42,21,42s10.8-2,14.8-6.1c8.2-8.2,8.2-21.5,0-29.7S14.3-2,6.1,6.1z
	 M34.4,34.4c-7.4,7.4-19.5,7.4-26.9,0S0.2,15,7.6,7.6C11.3,3.9,16.1,2,21,2s9.7,1.8,13.4,5.6C41.8,15,41.8,27,34.4,34.4z"/>
<path d="M30.5,11.4c-0.4-0.4-1-0.4-1.4,0L21,19.6l-8.1-8.1c-0.4-0.4-1-0.4-1.4,0c-0.4,0.4-0.4,1,0,1.4l8.1,8.1l-8.1,8.1
	c-0.4,0.4-0.4,1,0,1.4c0.2,0.2,0.4,0.3,0.7,0.3s0.5-0.1,0.7-0.3l8.1-8.1l8.1,8.1c0.2,0.2,0.5,0.3,0.7,0.3s0.5-0.1,0.7-0.3
	c0.4-0.4,0.4-1,0-1.4L22.4,21l8.1-8.1C30.9,12.5,30.9,11.8,30.5,11.4z"/>
</svg>
