<?xml version="1.0" encoding="utf-8"?>
<!-- Generator: Adobe Illustrator 23.0.6, SVG Export Plug-In . SVG Version: 6.00 Build 0)  -->
<svg version="1.1" id="Layer_1" xmlns="http://www.w3.org/2000/svg" xmlns:xlink="http://www.w3.org/1999/xlink" x="0px" y="0px"
	 viewBox="0 0 98.1 69.7" style="enable-background:new 0 0 98.1 69.7;" xml:space="preserve">
<style type="text/css">
	.st0{stroke:#000000;stroke-width:2;stroke-miterlimit:10;}
</style>
<path class="st0" d="M83.7,1c-0.5,0-1,0.2-1.4,0.6L32.8,51.1c-0.3,0.3-0.5,0.6-0.5,1l-2.8,14.1c-0.2,1.1,0.5,2.1,1.5,2.4
	c0.3,0.1,0.5,0.1,0.8,0L46,65.8c0.4-0.1,0.7-0.3,1-0.5l49.5-49.5c0.8-0.8,0.8-2,0-2.8L85.1,1.6c-0.3-0.3-0.6-0.5-1-0.5
	C83.9,1,83.8,1,83.7,1z M83.7,5.8l8.5,8.5L44.5,61.9l-10.6,2.2L36,53.5L83.7,5.8z M4,62.7c-1.7,0-3,1.3-3,3s1.3,3,3,3h18
	c1.7,0,3-1.3,3-3s-1.3-3-3-3L4,62.7z"/>
</svg>
