<svg enable-background="new 0 0 362.6 464.4" viewBox="0 0 362.6 464.4" xmlns="http://www.w3.org/2000/svg"><circle cx="181.4" cy="110.3" r="100.3"/><path d="m271.7 110.3c-.3 37.4-23.9 72.4-59.5 84.9-36.2 12.8-76.3 1.6-100.8-27.8-24-28.8-26.6-71.4-7.5-103.4 19.3-32.4 58.3-50 95.4-42.2 41.8 8.7 72.1 45.8 72.4 88.5.1 12.9 20.1 12.9 20 0-.3-46.3-29.5-87.8-72.9-103.8-42.9-15.8-93.6-1.9-122.4 33.5-29.3 36.1-33.7 87.9-9.1 127.8 24.2 39.3 70.8 59.3 116 50.6 51.1-9.9 88.1-56.5 88.4-108.1.1-12.9-19.9-12.9-20 0z"/><path d="m352.5 454h-342.4v-102.3c0-59.7 48.4-108.1 108.1-108.1h126.2c59.7 0 108.1 48.4 108.1 108.1z"/><path d="m352.5 444c-11.4 0-22.8 0-34.1 0-27.2 0-54.3 0-81.5 0-33 0-66 0-99.1 0-28.4 0-56.9 0-85.3 0-9.5 0-18.9 0-28.4 0-4.4 0-9-.4-13.4 0-.2 0-.4 0-.6 0 3.3 3.3 6.7 6.7 10 10 0-33.7-.1-67.5 0-101.2 0-27.6 10.9-53.7 31.1-72.7 18.8-17.7 43.4-26.4 68.9-26.4h115c5.2 0 10.4-.1 15.6.2 15.3.9 30.2 5.6 43.4 13.3 26.1 15.4 44.7 43.1 47.8 73.4 1.7 16.3.6 33.1.6 49.5v60.1 3.9c0 12.9 20 12.9 20 0 0-34 .2-68 0-102-.1-32.8-13.7-64.7-37.9-87-22.3-20.5-51.3-31.4-81.5-31.4-38.9 0-77.8 0-116.7 0-24.2 0-47.4 4-68.5 16.6-29.3 17.5-50.6 47.8-56 81.6-2.9 18.1-1.7 37-1.7 55.4v62.8 4.1c0 5.4 4.6 10 10 10h34.1 81.5 99.1 85.3c13.9 0 27.9.6 41.8 0h.6c12.7-.2 12.8-20.2-.1-20.2z"/></svg>