<?xml version="1.0" encoding="utf-8"?>
<!-- Generator: Adobe Illustrator 23.0.6, SVG Export Plug-In . SVG Version: 6.00 Build 0)  -->
<svg version="1.1" id="Layer_1" xmlns="http://www.w3.org/2000/svg" xmlns:xlink="http://www.w3.org/1999/xlink" x="0px" y="0px"
	 viewBox="0 0 38.4 38.6" style="enable-background:new 0 0 38.4 38.6;" xml:space="preserve">
<style type="text/css">
	.st0{stroke:#000000;stroke-width:2;stroke-miterlimit:10;}
</style>
<path class="st0" d="M24.4,25.7c-0.1-0.1-0.3-0.1-0.4,0c0,0-0.1,0.1-0.2,0.2c-2.4,2-5.5,3.2-8.9,3.2C7.3,29,1,22.7,1,15S7.3,1,15,1
	s14,6.3,14,14c0,3.4-1.2,6.5-3.2,8.9c-0.1,0.1-0.2,0.2-0.2,0.2c-0.1,0.1-0.1,0.3,0,0.4l1,1c0.1,0.1,0.3,0.2,0.4,0.1h0.2
	c0.6-0.1,1.2,0.1,1.6,0.6l8,8c0.8,0.8,0.8,2,0,2.8c-0.8,0.8-2,0.8-2.8,0l-8-8c-0.5-0.5-0.6-1.1-0.6-1.7c0-0.1,0-0.2,0-0.2
	c0-0.1,0-0.3-0.1-0.4L24.4,25.7z M15,27c6.6,0,12-5.4,12-12S21.6,3,15,3S3,8.4,3,15S8.4,27,15,27z"/>
</svg>
